<svg width="44" height="44" viewBox="0 0 44 44" fill="none" xmlns="http://www.w3.org/2000/svg">
<g clip-path="url(#clip0_431_123)">
<path d="M26.9774 15.8922L22.5733 19.9897L18.4868 11.7466L20.6016 7.0056C21.1516 6.0431 22.0096 6.0541 22.5458 7.0056L26.9774 15.8922Z" fill="#FFA000"/>
<path d="M18.487 11.7466L22.5735 19.9897L6.11475 35.3003L18.487 11.7466Z" fill="#F57F17"/>
<path d="M31.7942 9.6291C32.5807 8.87285 33.3947 9.13135 33.6024 10.2025L37.8869 35.0969L23.6859 43.6219C23.1909 43.8969 21.8709 44.0151 21.8709 44.0151C21.8709 44.0151 20.6691 43.8721 20.2112 43.6026L6.11475 35.3004L31.7942 9.6291Z" fill="#FFCA28"/>
<path d="M18.4871 11.7466L6.11621 35.3004L11.6258 0.877253C11.8293 -0.195247 12.4398 -0.298372 12.9843 0.647628L18.4871 11.7466Z" fill="#FFA000"/>
</g>
<defs>
<clipPath id="clip0_431_123">
<rect width="44" height="44" fill="white"/>
</clipPath>
</defs>
</svg>
