<svg width="82" height="77" viewBox="0 0 82 77" fill="none" xmlns="http://www.w3.org/2000/svg">
<g clip-path="url(#clip0_431_128)">
<path d="M38.9774 30.8922L34.5733 34.9897L30.4868 26.7466L32.6016 22.0056C33.1516 21.0431 34.0096 21.0541 34.5458 22.0056L38.9774 30.8922Z" fill="#FFA000"/>
<path d="M30.487 26.7466L34.5735 34.9897L18.1147 50.3003L30.487 26.7466Z" fill="#F57F17"/>
<path d="M43.7942 24.6291C44.5807 23.8729 45.3947 24.1314 45.6024 25.2025L49.8869 50.0969L35.6859 58.6219C35.1909 58.8969 33.8709 59.0151 33.8709 59.0151C33.8709 59.0151 32.6691 58.8721 32.2112 58.6026L18.1147 50.3004L43.7942 24.6291Z" fill="#FFCA28"/>
<path d="M30.4871 26.7466L18.1162 50.3004L23.6258 15.8773C23.8293 14.8048 24.4398 14.7016 24.9843 15.6476L30.4871 26.7466Z" fill="#FFA000"/>
</g>
<defs>
<clipPath id="clip0_431_128">
<rect width="44" height="44" fill="white" transform="translate(12 15)"/>
</clipPath>
</defs>
</svg>
