<svg width="82" height="77" viewBox="0 0 82 77" fill="none" xmlns="http://www.w3.org/2000/svg">
<path d="M56.7866 44.3297C56.8461 44.1266 56.9077 43.9245 56.9602 43.7162C59.2014 34.7866 53.7313 24.2292 44.4747 18.6705C48.5315 24.1697 50.3247 30.8301 48.7311 36.6551C48.589 37.1744 48.418 37.6733 48.2291 38.158C48.0239 38.0236 47.7658 37.8704 47.419 37.6795C47.419 37.6795 38.2109 31.994 28.2309 21.9381C27.9692 21.6739 33.5529 29.9188 39.8895 36.6133C36.9045 34.9373 28.5848 28.8837 23.3173 24.0633C23.9644 25.1426 24.7342 26.1817 25.5799 27.1822C29.9788 32.7602 35.7146 39.6432 42.5869 44.928C37.7583 47.883 30.9354 48.1126 24.1426 44.931C22.4624 44.1434 20.8826 43.1933 19.4209 42.114C22.2965 46.7135 26.7254 50.6817 32.1156 52.9987C38.5434 55.7613 44.9355 55.5739 49.6964 53.044L49.6928 53.0496C49.7091 53.0394 49.7269 53.0287 49.7437 53.0186C49.9576 52.904 50.1694 52.7859 50.3761 52.6622C52.6758 51.4815 57.1633 50.3166 59.5746 55.0088C60.1682 56.1635 61.4303 50.0437 56.7906 44.3348C56.7891 44.3323 56.7881 44.3313 56.7866 44.3297Z" fill="#F05138"/>
</svg>
