<svg width="82" height="77" viewBox="0 0 82 77" fill="none" xmlns="http://www.w3.org/2000/svg">
<path d="M55.3657 43.6592C55.4252 43.4561 55.4868 43.2539 55.5393 43.0457C57.7805 34.116 52.3104 23.5587 43.0538 18C47.1106 23.4991 48.9038 30.1596 47.3102 35.9846C47.1681 36.5039 46.9971 37.0028 46.8082 37.4875C46.603 37.3531 46.3449 37.1999 45.9981 37.0089C45.9981 37.0089 36.79 31.3235 26.81 21.2676C26.5483 21.0034 32.132 29.2482 38.4686 35.9428C35.4836 34.2667 27.1639 28.2132 21.8964 23.3927C22.5435 24.4721 23.3133 25.5112 24.159 26.5117C28.5579 32.0897 34.2937 38.9726 41.166 44.2574C36.3374 47.2124 29.5145 47.442 22.7217 44.2605C21.0416 43.4729 19.4617 42.5228 18 41.4435C20.8756 46.043 25.3045 50.0111 30.6947 52.3282C37.1225 55.0907 43.5146 54.9034 48.2755 52.3735L48.2719 52.3791C48.2882 52.3689 48.306 52.3582 48.3228 52.348C48.5367 52.2335 48.7485 52.1154 48.9552 51.9916C51.2549 50.811 55.7424 49.6461 58.1537 54.3382C58.7473 55.4929 60.0094 49.3732 55.3697 43.6643C55.3682 43.6617 55.3672 43.6607 55.3657 43.6592Z" fill="#F05138"/>
</svg>
