<svg width="42" height="38" viewBox="0 0 42 38" fill="none" xmlns="http://www.w3.org/2000/svg">
<path d="M37.7866 26.3297C37.8461 26.1266 37.9077 25.9245 37.9602 25.7162C40.2014 16.7866 34.7313 6.22923 25.4747 0.670532C29.5315 6.16966 31.3247 12.8301 29.7311 18.6551C29.589 19.1744 29.418 19.6733 29.2291 20.158C29.0239 20.0236 28.7658 19.8704 28.419 19.6795C28.419 19.6795 19.2109 13.994 9.23091 3.93814C8.96921 3.6739 14.5529 11.9188 20.8895 18.6133C17.9045 16.9373 9.58475 10.8837 4.31728 6.06325C4.96439 7.14261 5.73419 8.18175 6.57986 9.18219C10.9788 14.7602 16.7146 21.6432 23.5869 26.928C18.7583 29.883 11.9354 30.1126 5.14258 26.931C3.46245 26.1434 1.88261 25.1933 0.420898 24.114C3.29647 28.7135 7.72541 32.6817 13.1156 34.9987C19.5434 37.7613 25.9355 37.5739 30.6964 35.044L30.6928 35.0496C30.7091 35.0394 30.7269 35.0287 30.7437 35.0186C30.9576 34.904 31.1694 34.7859 31.3761 34.6622C33.6758 33.4815 38.1633 32.3166 40.5746 37.0088C41.1682 38.1635 42.4303 32.0437 37.7906 26.3348C37.7891 26.3323 37.7881 26.3313 37.7866 26.3297Z" fill="#F05138"/>
</svg>
